<?xml version="1.0" standalone="no"?>
<!DOCTYPE svg PUBLIC "-//W3C//DTD SVG 20010904//EN"
 "http://www.w3.org/TR/2001/REC-SVG-20010904/DTD/svg10.dtd">
<svg version="1.0" xmlns="http://www.w3.org/2000/svg"
 width="260.000000pt" height="260.000000pt" viewBox="0 0 260.000000 260.000000"
 preserveAspectRatio="xMidYMid meet">
<metadata>
Created by potrace 1.14, written by Peter Selinger 2001-2017
</metadata>
<g transform="translate(0.000000,260.000000) scale(0.100000,-0.100000)"
fill="#000000" stroke="none">
<path d="M1185 2335 c2 -14 0 -23 -5 -20 -4 3 -10 -2 -14 -10 -3 -8 -14 -15
-25 -15 -15 0 -19 -5 -16 -21 3 -12 2 -19 -2 -15 -3 3 -12 -3 -20 -14 -8 -11
-20 -20 -27 -20 -8 0 -16 -9 -19 -20 -3 -11 -11 -20 -19 -20 -10 0 -9 3 2 11
13 9 13 10 0 6 -8 -2 -15 -8 -15 -13 -1 -5 -5 -19 -9 -32 -7 -20 -10 -21 -24
-10 -13 11 -14 11 -7 -1 6 -11 4 -13 -10 -7 -15 5 -16 4 -5 -9 10 -12 10 -15
-4 -15 -10 0 -14 -5 -11 -10 4 -6 9 -8 13 -6 4 2 6 -43 5 -100 -3 -89 -1 -104
13 -104 9 0 12 -5 8 -12 -5 -8 0 -7 11 2 11 9 16 10 11 3 -4 -8 -2 -13 5 -13
8 0 7 -5 -2 -17 -10 -11 -10 -14 -1 -9 6 4 12 2 12 -3 0 -6 3 -10 8 -10 21 4
32 -3 32 -20 0 -10 8 -25 18 -32 16 -13 16 -13 2 6 -14 18 -13 19 1 8 9 -7 20
-9 24 -5 5 4 5 2 1 -5 -4 -7 -1 -21 6 -32 9 -15 15 -17 25 -9 8 6 16 8 20 4 3
-3 0 -6 -8 -6 -12 0 -12 -2 0 -9 8 -5 15 -19 16 -30 1 -11 -2 -18 -7 -15 -4 3
-8 -1 -8 -8 0 -10 -2 -10 -9 1 -7 11 -9 11 -14 0 -5 -12 -6 -12 -6 0 -1 11 -4
11 -16 1 -12 -10 -16 -9 -21 5 -5 13 -9 14 -15 4 -5 -8 -3 -17 4 -21 8 -5 6
-8 -7 -8 -14 0 -17 -5 -13 -21 4 -16 3 -19 -5 -11 -8 8 -15 7 -25 -6 -8 -9
-11 -11 -7 -3 5 10 3 12 -5 7 -9 -6 -9 -11 -1 -21 9 -10 6 -15 -12 -21 -13 -4
-27 -8 -32 -9 -5 0 -11 -7 -13 -15 -4 -13 -3 -13 6 0 6 8 11 10 11 4 0 -6 -7
-17 -15 -24 -8 -7 -12 -17 -8 -23 3 -6 1 -7 -6 -3 -6 4 -9 11 -6 16 3 5 0 12
-6 16 -8 4 -9 3 -5 -5 4 -6 0 -14 -9 -17 -13 -6 -14 -8 -3 -15 10 -7 9 -9 -4
-9 -10 0 -18 -5 -18 -11 0 -5 5 -7 12 -3 6 4 8 3 5 -4 -7 -11 -25 -11 -43 0
-7 5 -9 -4 -6 -24 3 -19 -1 -33 -9 -39 -11 -7 -10 -9 4 -9 10 0 15 -5 12 -10
-4 -6 -12 -7 -18 -3 -7 4 -5 -2 3 -13 8 -10 10 -16 6 -12 -5 4 -16 2 -24 -5
-13 -9 -14 -9 -8 1 4 6 2 12 -3 12 -6 0 -11 -7 -11 -16 0 -8 -4 -13 -9 -10 -4
3 -6 -6 -3 -20 3 -19 7 -22 13 -12 6 9 9 9 9 1 0 -6 -5 -15 -10 -18 -6 -4 -8
-11 -5 -16 4 -5 0 -9 -7 -10 -7 0 -4 -4 7 -9 11 -5 14 -9 6 -9 -10 -1 -11 -4
-3 -14 7 -8 7 -18 2 -27 -5 -9 -5 -19 2 -27 8 -10 7 -12 -6 -7 -10 4 -18 0
-22 -10 -5 -14 -9 -14 -23 -4 -9 7 -13 8 -9 4 4 -5 2 -16 -5 -24 -8 -10 -8
-13 -1 -9 7 4 15 0 18 -9 3 -8 2 -13 -3 -10 -5 3 -12 -1 -15 -10 -3 -8 -2 -13
3 -10 5 3 12 -1 15 -10 3 -8 2 -13 -3 -10 -5 3 -11 -1 -15 -9 -3 -8 0 -17 6
-21 7 -5 8 -2 3 6 -6 9 -4 11 4 5 9 -5 10 -10 2 -18 -7 -7 -7 -16 0 -30 7 -12
7 -17 1 -13 -15 9 -25 -26 -10 -36 8 -5 3 -7 -15 -4 -18 3 -25 1 -21 -6 5 -7
2 -9 -7 -6 -12 5 -14 -1 -11 -23 3 -17 9 -27 16 -23 6 3 3 -1 -6 -9 -20 -16
-25 -32 -6 -21 7 4 8 3 4 -4 -5 -9 -13 -9 -29 -1 -18 9 -20 9 -10 -2 10 -10 9
-16 -4 -31 -9 -10 -20 -18 -25 -18 -14 0 -38 -27 -31 -34 4 -3 1 -6 -6 -6 -7
0 -9 -5 -5 -13 5 -9 4 -9 -6 0 -10 9 -19 9 -41 -2 -18 -10 -30 -11 -34 -5 -3
6 -11 10 -16 10 -6 0 -7 -6 -3 -12 6 -10 5 -10 -8 -1 -8 7 -18 10 -21 6 -4 -3
-7 -1 -7 6 0 7 -7 19 -15 28 -8 8 -13 18 -11 22 3 4 -6 7 -19 7 -13 0 -21 -4
-19 -8 3 -5 10 -5 16 -2 7 4 8 2 4 -5 -5 -7 -13 -8 -23 -2 -9 4 -24 6 -34 4
-11 -3 -19 0 -19 6 0 7 -5 9 -10 6 -6 -4 -8 -11 -5 -16 3 -5 -1 -6 -9 -3 -9 3
-13 11 -9 17 4 6 1 7 -8 1 -8 -5 -25 -10 -39 -11 -20 -3 -22 -1 -10 7 8 5 11
10 6 10 -5 0 -18 -8 -29 -18 -11 -9 -17 -11 -13 -5 4 7 3 13 -2 13 -15 0 -22
-26 -10 -38 8 -8 5 -9 -11 -5 -16 4 -21 1 -21 -13 0 -15 -2 -16 -9 -5 -6 8
-16 11 -31 6 -17 -5 -21 -4 -15 5 5 9 4 11 -4 6 -6 -4 -9 -11 -6 -16 3 -4 -2
-11 -10 -14 -8 -3 -14 -11 -13 -18 2 -7 -5 -12 -15 -11 -12 0 -16 -4 -13 -13
3 -8 -1 -14 -8 -14 -7 0 -19 -7 -26 -15 -7 -8 -16 -13 -20 -10 -4 3 -7 -21 -6
-53 1 -37 5 -57 14 -58 6 -1 16 -2 21 -3 5 0 11 -11 13 -23 2 -13 9 -22 16
-20 7 1 25 -7 40 -19 15 -12 19 -19 10 -16 -10 3 -20 3 -22 -2 -3 -4 0 -8 7
-9 37 -3 52 -11 49 -26 -2 -9 2 -16 8 -16 6 0 8 -5 4 -12 -4 -7 -3 -8 4 -4 7
4 12 2 12 -5 0 -7 7 -4 16 7 8 10 13 13 9 6 -4 -7 -1 -20 7 -29 9 -12 9 -15 1
-9 -9 4 -11 2 -7 -7 3 -8 13 -14 22 -14 60 0 80 -5 86 -19 3 -8 2 -13 -2 -10
-5 3 -9 -1 -9 -9 0 -10 6 -11 23 -5 19 8 22 6 17 -8 -6 -15 -5 -15 10 -3 9 7
17 10 17 5 0 -5 5 -2 10 6 8 13 10 12 10 -2 0 -10 5 -18 11 -18 6 0 9 -7 6
-15 -4 -8 -1 -17 5 -21 7 -4 8 -3 4 4 -4 7 -2 12 3 12 6 0 11 -5 11 -11 0 -6
12 -9 28 -8 15 2 32 0 39 -4 6 -4 15 -3 18 3 5 8 11 8 20 0 9 -7 15 -8 19 -1
4 6 14 7 22 4 9 -3 20 0 25 8 6 10 8 9 8 -6 1 -44 5 -53 19 -48 8 3 18 0 23
-8 7 -12 9 -12 9 0 0 11 3 11 17 0 11 -10 14 -10 9 -1 -4 7 -1 12 8 12 9 0 16
-6 16 -12 0 -9 4 -8 10 2 8 12 11 13 19 1 7 -11 9 -11 14 0 4 12 7 11 16 -1 9
-13 11 -13 11 -1 0 12 3 12 12 3 9 -9 16 -8 30 4 16 15 18 15 24 0 6 -15 7
-15 19 0 9 14 14 14 20 4 6 -9 4 -11 -5 -5 -9 6 -11 4 -6 -4 6 -9 12 -8 26 4
17 15 19 15 28 0 8 -16 10 -16 15 -1 7 17 36 12 49 -8 5 -7 8 -7 8 2 0 6 5 12
11 12 5 0 7 -6 3 -12 -6 -10 -4 -10 7 -1 17 17 32 17 23 1 -6 -10 -4 -10 7 -1
17 17 32 17 23 1 -5 -9 -2 -9 9 1 12 9 17 10 17 2 0 -7 5 -9 10 -6 6 4 8 11 5
16 -7 11 24 0 44 -15 11 -8 13 -8 7 2 -9 16 6 16 23 0 11 -10 13 -10 7 -1 -4
7 -3 13 1 13 5 0 15 -6 22 -13 11 -9 13 -9 7 1 -8 13 10 17 18 4 7 -12 42 -8
60 7 13 11 17 11 22 -3 6 -15 7 -15 19 0 9 14 14 14 20 4 6 -9 4 -11 -5 -5 -9
6 -11 4 -6 -4 6 -9 12 -8 26 4 17 15 19 15 28 0 8 -16 10 -16 15 -1 4 9 13 13
22 10 8 -3 12 -11 8 -18 -4 -6 1 -5 11 3 15 13 19 13 27 0 7 -11 9 -11 9 0 0
11 3 11 17 0 11 -10 14 -10 9 -1 -4 7 -1 12 9 12 10 0 14 -5 9 -12 -6 -10 -4
-10 7 0 7 6 17 12 22 12 4 0 5 -6 1 -12 -5 -8 -1 -8 10 1 15 13 19 13 27 0 7
-11 9 -11 9 0 0 11 3 11 17 0 11 -10 14 -10 9 -1 -4 7 -1 12 8 12 9 0 16 -6
16 -12 0 -9 4 -8 10 2 8 12 11 13 19 1 7 -11 9 -11 14 0 4 12 7 11 16 -1 9
-13 11 -13 11 -1 0 12 3 12 12 3 9 -9 16 -8 30 4 16 15 18 15 24 0 6 -15 7
-15 19 0 9 14 14 14 20 4 6 -9 4 -11 -5 -5 -9 6 -11 4 -6 -4 6 -9 13 -8 27 5
17 16 19 16 25 0 6 -15 8 -15 21 1 8 10 11 12 7 4 -5 -11 -3 -13 9 -8 9 3 19
2 22 -3 10 -16 46 9 43 28 -2 11 3 17 14 16 10 -1 16 2 13 6 -3 4 2 10 10 14
8 3 17 1 20 -3 3 -5 20 -9 39 -9 19 0 40 -3 47 -8 7 -4 10 -3 6 3 -4 6 0 14 9
17 8 3 12 2 9 -4 -3 -5 4 -8 15 -7 12 1 18 7 16 13 -3 7 6 20 20 28 13 9 24
12 24 6 0 -6 11 -5 29 4 16 9 32 12 36 8 5 -4 5 -2 2 5 -4 6 -1 14 5 16 10 4
10 6 0 6 -7 1 -11 5 -7 11 3 5 13 6 22 3 10 -4 14 -2 10 4 -3 5 0 10 8 10 8 0
12 -4 9 -9 -3 -4 -1 -8 5 -8 5 0 13 5 16 10 3 6 12 10 18 10 7 0 6 -4 -3 -11
-10 -7 -11 -9 -2 -7 8 2 14 8 14 13 0 17 18 45 29 45 6 0 7 -4 4 -10 -13 -22
4 -8 19 15 14 21 14 24 1 19 -8 -4 -15 -3 -15 0 0 8 52 30 63 27 4 -1 7 7 5
16 -2 10 2 17 10 15 6 -1 11 1 11 5 -3 20 2 24 17 13 8 -8 14 -9 13 -4 -4 21
1 57 8 51 3 -4 13 -1 21 6 13 10 14 9 7 -2 -5 -10 -4 -12 3 -7 7 4 12 31 12
61 0 53 -12 77 -26 54 -4 -8 -3 -9 4 -5 7 4 12 2 12 -3 0 -6 -4 -11 -8 -11
-14 0 -32 24 -32 43 0 13 -6 17 -22 15 -17 -2 -23 4 -30 31 -5 18 -12 31 -15
27 -3 -3 -15 0 -27 6 -18 10 -19 9 -9 -3 10 -12 8 -15 -7 -15 -10 0 -16 4 -14
8 3 4 -1 8 -9 8 -8 0 -21 8 -28 18 -12 15 -12 16 1 7 10 -6 9 -4 -2 6 -9 9
-14 20 -10 25 4 5 0 3 -8 -3 -17 -15 -34 -17 -25 -3 3 6 -1 7 -9 4 -9 -3 -13
-10 -10 -15 3 -5 -2 -6 -10 -3 -9 3 -13 10 -10 15 3 5 -7 4 -22 -1 -21 -8 -29
-8 -36 2 -6 10 -8 10 -8 -2 0 -13 -1 -13 -10 0 -9 13 -14 7 -11 -12 0 -4 -6
-5 -14 -2 -8 4 -12 11 -8 18 3 6 -4 2 -17 -9 -15 -13 -21 -15 -16 -5 4 8 0 6
-8 -5 -9 -11 -14 -26 -11 -35 5 -12 4 -12 -6 -3 -10 10 -15 9 -26 -5 -8 -9
-11 -11 -7 -3 5 10 1 11 -16 6 -17 -5 -21 -4 -16 6 4 8 0 5 -8 -5 -14 -18 -21
-15 -17 7 0 4 -3 7 -9 7 -5 0 -10 -7 -10 -16 0 -8 -5 -12 -10 -9 -6 4 -7 12
-3 18 4 7 -2 5 -12 -3 -11 -9 -16 -10 -11 -2 4 7 1 14 -8 18 -9 3 -12 12 -9
21 4 11 2 14 -5 9 -7 -4 -12 -2 -12 3 0 6 -7 11 -16 11 -11 0 -14 6 -9 20 4
12 2 20 -5 20 -6 0 -8 -5 -4 -12 5 -9 2 -9 -9 1 -9 7 -17 10 -17 5 0 -5 -5 -2
-10 6 -5 8 -7 25 -3 37 3 14 1 23 -7 23 -7 0 -6 6 4 16 21 21 20 23 -9 19 -14
-1 -25 2 -25 7 0 5 -6 6 -12 2 -7 -4 -10 -4 -6 1 4 4 3 17 -3 28 -7 13 -7 17
-1 13 6 -3 13 -2 17 4 3 5 2 10 -3 10 -6 0 -12 7 -15 14 -4 11 -1 13 11 9 14
-5 14 -3 -3 17 -11 13 -15 20 -9 17 14 -8 27 20 14 28 -6 4 -10 11 -10 16 0 6
6 7 13 3 14 -9 -7 18 -40 52 -14 14 -20 29 -16 43 3 13 1 21 -6 21 -7 0 -9 5
-6 10 4 6 11 8 16 5 5 -3 6 1 3 9 -3 9 -11 13 -16 10 -6 -4 -2 5 7 20 16 25
16 26 -1 26 -17 0 -16 1 2 15 13 11 14 14 4 13 -8 -2 -14 3 -12 11 2 10 -4 12
-25 7 -21 -5 -24 -4 -13 4 8 5 10 10 4 10 -7 0 -15 7 -18 16 -3 8 -2 13 3 10
11 -7 7 52 -4 62 -5 4 -5 0 -1 -8 5 -8 -2 -4 -15 10 -13 14 -21 21 -16 16 4
-6 7 -14 7 -20 0 -5 -6 -1 -14 10 -9 11 -11 23 -5 30 6 7 3 11 -9 11 -9 0 -21
-5 -25 -11 -5 -6 -5 0 -2 13 5 16 4 21 -4 17 -7 -5 -11 1 -11 14 0 12 -5 18
-10 15 -6 -4 -7 -11 -4 -17 4 -7 2 -8 -4 -4 -6 4 -8 14 -5 23 5 13 2 15 -11
10 -12 -5 -16 -3 -14 5 3 7 -2 19 -10 27 -12 12 -15 12 -24 0 -8 -12 -9 -12
-5 1 2 8 -5 25 -17 38 -20 22 -20 23 -1 16 21 -8 21 -6 -9 16 -11 8 -17 10
-13 3 4 -6 3 -14 -3 -18 -5 -3 -10 0 -10 7 0 10 -2 10 -9 0 -11 -19 -13 -19
-38 3 -24 20 -30 35 -13 35 5 0 23 13 39 29 23 22 27 32 18 41 -10 10 -7 10
11 1 15 -8 22 -8 22 -1 0 6 4 9 9 6 5 -3 11 3 14 15 5 18 3 18 -11 7 -15 -12
-16 -11 -3 5 8 10 19 16 26 13 13 -5 38 31 30 44 -3 4 6 7 20 6 13 -2 22 1 19
5 -3 5 1 9 8 9 11 0 10 2 0 9 -11 6 -10 10 4 15 16 6 15 8 -2 28 -19 21 -19
21 1 14 16 -6 18 -5 8 5 -16 16 -18 93 -2 84 6 -4 5 3 -3 14 -11 18 -11 23 2
31 13 8 12 10 -2 10 -10 0 -18 5 -18 11 0 5 6 7 13 4 6 -4 3 1 -8 10 -11 9
-28 14 -37 11 -14 -3 -16 -1 -8 15 8 14 6 21 -11 30 -15 7 -19 8 -15 0 5 -7 1
-9 -8 -5 -9 3 -13 10 -10 15 3 5 0 9 -7 9 -8 0 -8 4 1 15 11 13 10 14 -4 9 -9
-3 -16 -1 -16 6 0 6 -4 8 -10 5 -5 -3 -10 -1 -10 5 0 6 -5 8 -11 4 -8 -4 -9 0
-4 15 5 18 2 21 -21 21 -15 0 -24 3 -21 6 3 4 1 16 -5 28 -7 11 -11 25 -9 31
1 5 -6 2 -16 -6 -20 -17 -57 -14 -47 4 3 7 -1 4 -8 -5 -13 -15 -15 -15 -26 0
-7 9 -10 12 -7 6 2 -7 -2 -15 -11 -18 -8 -3 -12 -2 -9 4 3 6 -3 10 -14 10 -11
0 -23 -5 -27 -12 -5 -7 -11 -5 -21 7 -12 18 -13 18 -13 1 0 -16 -1 -16 -16 -2
-20 21 -22 20 -19 -9z m605 -1150 c7 -9 8 -15 2 -15 -5 0 -12 7 -16 15 -3 8
-4 15 -2 15 2 0 9 -7 16 -15z m-1740 -519 c0 -3 -4 -8 -10 -11 -5 -3 -10 -1
-10 4 0 6 5 11 10 11 6 0 10 -2 10 -4z"/>
<path d="M1080 2245 c-7 -9 -8 -15 -2 -15 5 0 12 7 16 15 3 8 4 15 2 15 -2 0
-9 -7 -16 -15z"/>
<path d="M656 844 c-5 -14 -4 -15 9 -4 17 14 19 20 6 20 -5 0 -12 -7 -15 -16z"/>
<path d="M530 769 c0 -5 5 -7 10 -4 6 3 10 8 10 11 0 2 -4 4 -10 4 -5 0 -10
-5 -10 -11z"/>
<path d="M2513 725 c0 -8 4 -12 9 -9 5 3 6 10 3 15 -9 13 -12 11 -12 -6z"/>
</g>
</svg>
